#!OML:ASF F:\VICON\USERDATA\INSTALL\rory3\rory3.ASF
:FULLY-SPECIFIED
:DEGREES
20
root 0.6265190000000002 18.1195 5.5410899999999925 -4.851740000000003 4.079680000000008 -5.03487
lfemur -0.3619969999999908 -2.6931199999999995 -13.805899999999994
ltibia 59.040399999999984
lfoot 15.94699999999995 -17.159300000000012
ltoes -8.68841
rfemur -14.906699999999999 2.2432 30.860399999999995
rtibia 27.896200000000004
rfoot -6.16131 -8.37248
rtoes 7.240710000000006
lowerback -1.0 -1.972550000000001 1.3343400000000005
upperback -0.03582269999999999 -2.2234900000000044 3.717869999999995
thorax -6.03991 -1.0753700000000008 3.5127400000000026
lowerneck -16.2628 -4.023389999999999 -2.1276499999999996
upperneck 20.8395 -5.559569999999999 2.1262499999999998
head 9.37536 -2.5272799999999997 0.3711119999999998
lclavicle -4.267660000000008e-14 2.5841999999999975e-14
lhumerus -27.21130000000001 -2.8923299999999927 82.895
lradius 31.394500000000015
lwrist 11.289799999999994
lhand -30.9695 21.3361
lfingers 7.12502
lthumb -4.2537100000000025 51.2734
rclavicle -4.267660000000008e-14 2.5841999999999975e-14
rhumerus -37.468499999999985 -29.092999999999996 -69.1584
rradius 21.80450000000001
rwrist 8.163310000000003
rhand -21.5032 -1.0
rfingers 7.12502
rthumb 4.888499999999997 -10.989300000000007
21
root 0.5339399389906836 18.068861117152302 5.222136369727449 -4.054872716781033 2.557850128719806 -3.6411347418272975
lfemur -5.95392028910165 -2.7982846026813326 -13.508713733032945
ltibia 57.637355821649315
lfoot 12.40812274279818 -13.943941868722547
ltoes -5.676226912312075
rfemur -13.564553912193562 2.7138863352181968 31.481753296326172
rtibia 29.463935489100876
rfoot -8.723428926799317 -8.836870996194563
rtoes 7.668752793858985
lowerback -1.0 -1.5232916285012856 1.7286209641377144
upperback -0.13294608667657162 -1.215998324523945 3.2044100567841207
thorax -6.359051146067809 -0.8199808289707762 2.7611160873504823
lowerneck -16.364807584598825 -4.085972986668507 -1.9879317785964727
upperneck 20.88226861511489 -5.677216462223036 2.0041874870408023
head 9.400005245451508 -2.5788442469293376 0.29624266853271325
lclavicle -1.2700705119070643e-14 6.182591645533346e-14
lhumerus -27.45652976072252 -1.6091575511029208 82.48144111470643
lradius 30.2705914096266
lwrist 9.93165648885129
lhand -31.523801198180358 18.601978817644717
lfingers nan
lthumb -4.820284787103384 48.431164340819905
rclavicle -1.2701888151290814e-14 6.336237043882723e-14
rhumerus -35.58224774430077 -26.30592962280718 -71.83617089636714
rradius 23.581404633973495
rwrist 6.747741195175273
rhand -22.45485048054633 -1.0
rfingers nan
rthumb 3.8735076510493665 -9.674083899143326
22
root 0.4965623704016507 18.054049523696506 6.733740728581184 -3.5215967558824834 2.238789140593022 -3.8352495662395283
lfemur -10.558045412627333 -3.884858222982949 -12.551665429874673
ltibia 52.70049659311141
lfoot 10.837836531256883 -12.02732769039287
ltoes -3.970272145452379
rfemur -11.557405334341896 2.6935855033842575 32.36308721703209
rtibia 29.34197303963296
rfoot -10.390206541239937 -9.596916561507411
rtoes 3.3347784394600977
lowerback -1.0 -1.3863878269989651 2.358842357859367
upperback -0.13159436086094667 -0.7687826478622073 3.141925858702309
thorax -6.4600938534291945 -0.702208956999486 2.285348924832597
lowerneck -16.09791190817882 -3.969867394840336 -2.4117123832355425
upperneck 20.664731293887815 -5.349920302679395 2.0450901493097895
head 9.291536342586017 -2.487677126025869 0.3905911629100032
lclavicle -1.838952728360903e-14 4.126293826122781e-14
lhumerus -27.832780494920407 -0.7558588952097947 82.5184348840547
lradius 29.854218295663525
lwrist 9.596698416055494
lhand -31.5145095693764 21.33412284201934
lfingers nan
lthumb -4.8186628992780225 51.19106567004562
rclavicle -1.7980756626036344e-14 4.203099663215644e-14
rhumerus -33.453224251385876 -22.740592409214415 -74.00868411078541
rradius 26.023654642792092
rwrist 3.8448294776337066
rhand -21.782494431823388 -1.0
rfingers nan
rthumb 4.62612945934268 -13.243751191417202
23
root 0.4881645419093307 18.02271544284869 7.772867386649738 -2.8387542394401764 1.229599886230469 -4.423877564090901
lfemur -13.507804299042423 -3.97172376259339 -11.603601401518677
ltibia 45.09811634338071
lfoot 9.747068542162172 -9.698286521203116
ltoes -6.383683727483483
rfemur -9.421683584615629 3.204810477864159 33.01763847086656
rtibia 28.821150876307378
rfoot -11.759940345187958 -9.915990002690883
rtoes 1.906589472995352
lowerback -1.0 -0.7931876116112395 2.965852676700856
upperback -0.07745574386434338 0.1775128813365771 2.8217876334596035
thorax -6.36800838555093 -0.3050527242957928 1.4463329890857322
lowerneck -16.747918420090397 -4.075799680480081 -2.0509975158436653
upperneck 20.66683111699429 -5.698717775866834 1.912032842261123
head 9.355625760608746 -2.5780065533717558 0.26120629095383013
lclavicle -3.0579696209437836e-14 6.157803669446149e-15
lhumerus -27.831090914381612 -0.46309656394030396 82.38814950706555
lradius 29.12465306051875
lwrist 9.635717578991741
lhand -30.655883185977064 18.50137771682076
lfingers nan
lthumb -3.921946320367254 48.66529118195778
rclavicle -2.943300306049588e-14 6.9109182058027364e-15
rhumerus -31.326078415893853 -20.559008193812886 -75.48214175685318
rradius 28.130700645005582
rwrist 2.10498924923788
rhand -21.376140917164214 -1.0
rfingers nan
rthumb 5.0199155874613535 -4.748316870884225
24
root 0.4838177562198203 18.02114077362261 7.700144772995701 -2.0083036085658454 1.1831206085794879 -4.841814503329154
lfemur -15.684809102937795 -5.4612970492415585 -10.464636799875759
ltibia 34.35495141539164
lfoot 10.842291340017134 -7.984082195211244
ltoes -3.2983779411538556
rfemur -6.980635294709225 3.3189803206434796 33.4114285254203
rtibia 27.34319407718693
rfoot -12.409831549090057 -10.2201818435988
rtoes 0.8106954449802801
lowerback -1.0 -0.6472982553178855 3.3231779341305208
upperback -0.2255780532641275 0.5987146868092413 2.617584376030958
thorax -6.311668008724127 -0.1902230922191551 0.9453772529849847
lowerneck -17.407241788711236 -3.945896312497943 -1.893483201740733
upperneck 20.810771595341286 -5.530997921197262 1.850711696321911
head 9.492734071415256 -2.48340264569561 0.20205052456937644
lclavicle -2.935957470820418e-14 -1.2561620943527753e-14
lhumerus -28.22356250827254 0.7559860469451927 82.1281490428183
lradius 28.964055162442218
lwrist 9.088026718073325
lhand -31.204387437437855 14.234532451545201
lfingers nan
lthumb -4.430949910010323 44.47524234195974
rclavicle -2.7358884792893226e-14 -1.1878474704972732e-14
rhumerus -29.46321516733452 -18.524698690956843 -76.47826521159513
rradius 29.76442474428666
rwrist 1.000983228094766
rhand -21.389174734537292 -1.0
rfingers nan
rthumb 5.049520150134962 -4.844583736483671
